<svg class="svg" width="32" height="32" viewBox="0 0 32 32" xmlns="http://www.w3.org/2000/svg"><path d="M7 28h18c.552 0 1-.448 1-1V9.914c0-.265-.105-.52-.293-.707l-4.914-4.914C20.605 4.105 20.35 4 20.086 4H7c-.552 0-1 .448-1 1v22c0 .552.448 1 1 1z" fill-rule="nonzero" fill-opacity="1" fill="#9747ff" stroke="none"></path><path d="M19.297 20.862c.184.184.483.184.668 0l1.04-1.041c.185-.185.185-.484 0-.669l-5.947-5.948-1.71 1.71 5.949 5.948zm-6.655-6.655l-.94-.94-.427-2.136 2.136.427.94.94-1.71 1.709zm-1.58-4.139l2.842.569 7.809 7.808c.575.575.575 1.508 0 2.083l-1.041 1.04c-.575.576-1.508.576-2.082 0l-7.81-7.808-.567-2.842L10 9.856l1.062.212z" fill-rule="evenodd" fill-opacity="1" fill="#fff" stroke="none"></path><path d="M20.5 8.5V4l1.707 1.707 2.086 2.086L26 9.5h-4.5c-.552 0-1-.448-1-1z" fill-rule="nonzero" fill-opacity="1" fill="#c599ff" stroke="none"></path></svg>